<?xml version="1.0" encoding="utf-8"?>
<!-- Generator: Adobe Illustrator 24.0.3, SVG Export Plug-In . SVG Version: 6.00 Build 0)  -->
<svg version="1.1" id="Layer_1" xmlns="http://www.w3.org/2000/svg" xmlns:xlink="http://www.w3.org/1999/xlink" x="0px" y="0px"
	 viewBox="0 0 42.4 48" style="enable-background:new 0 0 42.4 48;" xml:space="preserve">
<g>
	<path d="M26,42.9h-9.6c-0.6,0-1,0.4-1,1s0.4,1,1,1H26c0.6,0,1-0.4,1-1C27,43.3,26.6,42.9,26,42.9z"/>
	<path d="M21.2,8.7c-0.5,0-0.9,0-1.4,0.1C14.5,9.4,10,13.7,9.2,19c-0.5,3.4,0.3,6.8,2.5,9.5c2.3,2.9,3.5,6.1,3.5,9.5
		c0,0.6,0.4,1,1,1h10.2c0.6,0,1-0.4,1-1c0-3.5,1.1-6.7,3.2-9.1c1.9-2.2,2.9-5,2.9-7.9C33.4,14.2,27.9,8.7,21.2,8.7z M21.8,36.9h-1.3
		l-0.6-9.8c0.8,0.1,1.7,0.1,2.5,0L21.8,36.9z M28.9,27.5c-2.2,2.5-3.4,5.8-3.6,9.4h-1.5l0.6-10.1c2.5-0.5,4.6-1.6,4.6-3.6
		c0-1.8-1.4-3.2-3.2-3.2c-1.8,0-3.2,1.4-3.2,3.1L22.5,25c-0.9,0.1-1.9,0.1-2.8,0l-0.1-1.8c0-1.8-1.4-3.2-3.2-3.2s-3.2,1.4-3.2,3.2
		c0,0.9,0.5,2.2,2.8,3.1c0.5,0.2,1.2,0.4,1.8,0.5l0.6,10.1h-1.5c-0.2-3.4-1.5-6.7-3.9-9.7c-1.8-2.2-2.5-5.1-2.1-7.9
		c0.7-4.4,4.4-8,8.9-8.5c0.4,0,0.8-0.1,1.2-0.1c5.6,0,10.2,4.6,10.2,10.2C31.4,23.3,30.5,25.7,28.9,27.5z M24.6,24.8l0.1-1.5
		c0-0.7,0.5-1.2,1.2-1.2s1.2,0.5,1.2,1.2C27.1,23.8,26.2,24.4,24.6,24.8z M17.8,24.8c-1.6-0.4-2.5-1-2.5-1.5c0-0.7,0.5-1.2,1.2-1.2
		c0.7,0,1.2,0.5,1.2,1.3L17.8,24.8z"/>
	<path d="M41.4,20.2h-5.5c-0.6,0-1,0.4-1,1s0.4,1,1,1h5.5c0.6,0,1-0.4,1-1S41.9,20.2,41.4,20.2z"/>
	<path d="M7.5,21.2c0-0.6-0.4-1-1-1H1c-0.6,0-1,0.4-1,1s0.4,1,1,1h5.5C7.1,22.2,7.5,21.7,7.5,21.2z"/>
	<path d="M21.2,7.2c0.6,0,1-0.4,1-1V1c0-0.6-0.4-1-1-1s-1,0.4-1,1v5.2C20.2,6.8,20.6,7.2,21.2,7.2z"/>
	<path d="M36.2,6.2c-0.4-0.4-1-0.4-1.4,0L31,10c-0.4,0.4-0.4,1,0,1.4c0.5,0.4,1,0.4,1.4,0l3.8-3.8C36.6,7.2,36.6,6.6,36.2,6.2z"/>
	<path d="M11.5,30.9c-0.4-0.4-1-0.4-1.4,0l-3.9,3.9c-0.4,0.4-0.4,1,0,1.4c0.5,0.4,1,0.4,1.4,0l3.9-3.9
		C11.9,31.9,11.9,31.3,11.5,30.9z"/>
	<path d="M36.2,34.8l-3.9-3.9c-0.4-0.4-1-0.4-1.4,0s-0.4,1,0,1.4l3.9,3.9c0.5,0.4,1,0.4,1.4,0S36.6,35.2,36.2,34.8z"/>
	<path d="M11.4,9.9L7.7,6.2c-0.4-0.4-1-0.4-1.4,0s-0.4,1,0,1.4l3.7,3.7c0.5,0.4,1,0.4,1.4,0C11.8,11,11.8,10.3,11.4,9.9z"/>
	<path d="M26,39.8h-9.6c-0.6,0-1,0.4-1,1s0.4,1,1,1H26c0.6,0,1-0.4,1-1S26.6,39.8,26,39.8z"/>
	<path d="M23.5,46h-4.2c-0.6,0-1,0.4-1,1s0.4,1,1,1h4.2c0.6,0,1-0.4,1-1S24,46,23.5,46z"/>
</g>
</svg>
