<?xml version="1.0" encoding="utf-8"?>
<!-- Generator: Adobe Illustrator 24.0.3, SVG Export Plug-In . SVG Version: 6.00 Build 0)  -->
<svg version="1.1" id="Layer_1" xmlns="http://www.w3.org/2000/svg" xmlns:xlink="http://www.w3.org/1999/xlink" x="0px" y="0px"
	 viewBox="0 0 56 60" style="enable-background:new 0 0 56 60;" xml:space="preserve">
<style type="text/css">
	.st0{fill-rule:evenodd;clip-rule:evenodd;}
</style>
<path class="st0" d="M54,32v24c0,2.2-1.8,4-4,4H6c-2.2,0-4-1.8-4-4V32c-1.1,0-2-0.9-2-2v-2v-6c0-2.2,1.8-4,4-4h16v0
	C11.8,17.6,5.1,13.3,4.1,7.2C4,6.9,4,6.6,4,6.4C3.9,3.4,6,0.7,9,0.2c8.1-1.4,15.9,4.3,19,13C31.1,4.5,39-1.2,47,0.2
	c3,0.5,5.1,3.2,4.9,6.2c0,0.2,0,0.5-0.1,0.8C50.9,13.3,44.2,17.6,36,18v0h16c2.2,0,4,1.8,4,4v6v2C56,31.1,55.1,32,54,32L54,32z
	 M4,56c0,1.1,0.9,2,2,2h14V32H4V56L4,56z M4,20c-1.1,0-2,0.9-2,2v3v3v2h2h16V20H4L4,20z M9.3,2.2C7.1,2.6,5.7,4.6,6,6.8
	c1.1,6.6,9.9,10.5,19.7,8.8c0.3-0.1,0.6-0.1,0.9-0.2C24.3,6.7,16.9,0.9,9.3,2.2L9.3,2.2z M22.1,18c0,0-0.1,0-0.1,0v40h12V18
	c0,0-0.1,0-0.1,0H22.1L22.1,18z M50,6.8c0.4-2.2-1.1-4.3-3.3-4.6c-7.6-1.3-15,4.5-17.3,13.3c0.3,0.1,0.6,0.1,0.9,0.2
	C40,17.3,48.8,13.4,50,6.8L50,6.8z M36,58h14c1.1,0,2-0.9,2-2V32H36V58L36,58z M54,28v-3v-3c0-1.1-0.9-2-2-2H36v10h16h2V28L54,28z"
	/>
</svg>
