<?xml version="1.0" encoding="utf-8"?>
<!-- Generator: Adobe Illustrator 24.0.3, SVG Export Plug-In . SVG Version: 6.00 Build 0)  -->
<svg version="1.1" id="Layer_1" xmlns="http://www.w3.org/2000/svg" xmlns:xlink="http://www.w3.org/1999/xlink" x="0px" y="0px"
	 viewBox="0 0 97.6 86.8" style="enable-background:new 0 0 97.6 86.8;" xml:space="preserve">
<title>Artboard 10</title>
<path d="M92.9,43.4l4.3-13.7c1-3.2-0.7-6.6-3.9-7.6l-8-2.5L80.5,4.2c-1-3.2-4.4-5-7.6-3.9L48.8,7.9L24.7,0.3c-3.2-1-6.6,0.7-7.6,3.9
	l-4.9,15.3l-8,2.5c-3.2,1-5,4.4-3.9,7.6l4.4,13.7L0.3,57c-1,3.2,0.7,6.6,3.9,7.6l8,2.5l4.9,15.3c1,3.2,4.4,5,7.6,3.9c0,0,0,0,0,0
	l24-7.6l24.1,7.7c3.2,1,6.6-0.7,7.6-3.9l4.9-15.3l8-2.5c3.2-1,5-4.4,3.9-7.6L92.9,43.4z M91.8,26.8c0.6,0.2,0.9,0.8,0.7,1.3
	l-2.2,6.9l-3.1-9.7L91.8,26.8z M21.9,5.7c0.2-0.6,0.8-0.9,1.3-0.7l17.3,5.5l-22.5,7.1L21.9,5.7z M5.8,59.9c-0.6-0.2-0.9-0.8-0.7-1.3
	l2.2-6.9l3.1,9.7L5.8,59.9z M75.7,81c-0.2,0.6-0.8,0.9-1.3,0.7L57,76.2l22.5-7.1L75.7,81z M91.8,59.9L23.2,81.7
	c-0.6,0.2-1.2-0.1-1.3-0.7l0,0L5.1,28.2c-0.2-0.6,0.1-1.2,0.7-1.3L74.4,5c0.1,0,0.2,0,0.3-0.1c0.2,0,0.3,0,0.5,0.1
	c0.3,0.1,0.4,0.4,0.5,0.6l16.8,52.8C92.7,59.1,92.3,59.7,91.8,59.9z M56.9,29.2c1.8,17.4-10.6,33.1-28,35.3h-0.3
	c-1.4,0.1-2.6-1-2.6-2.4c-0.1-1.4,1-2.6,2.4-2.7c14.6-1.8,25.1-15,23.7-29.6l-3.7,4.7c-0.9,1.1-2.4,1.3-3.5,0.4s-1.3-2.4-0.4-3.5
	l0,0l7.4-9.5c0.9-1.1,2.4-1.3,3.5-0.4c0,0,0,0,0,0l9.5,7.4c1.1,0.9,1.3,2.4,0.4,3.5c-0.9,1.1-2.4,1.3-3.5,0.4l0,0L56.9,29.2z
	 M26.2,46.8l1.6-4.1l-4.1-1.6c-1.3-0.5-2-1.9-1.5-3.2s1.9-2,3.2-1.5l0,0l4.1,1.6l1.6-4.1c0.6-1.2,2.1-1.8,3.3-1.2
	c1.1,0.5,1.7,1.8,1.3,3l-1.5,4.1l4.1,1.6c1.3,0.5,1.9,1.9,1.4,3.2c-0.5,1.3-1.9,1.9-3.2,1.4l-4.1-1.6l-1.6,4.1
	c-0.5,1.3-1.9,1.9-3.2,1.4C26.3,49.5,25.7,48.1,26.2,46.8L26.2,46.8z M77.3,53.3c-0.5,1.3-1.9,1.9-3.2,1.4c0,0,0,0,0,0l-4.1-1.6
	l-1.6,4.1c-0.5,1.3-1.9,1.9-3.2,1.4c-1.3-0.5-1.9-1.9-1.4-3.2l1.6-4.1l-4.1-1.6c-1.3-0.5-1.9-1.9-1.4-3.2c0.5-1.3,1.9-1.9,3.2-1.4
	l4.1,1.6l1.6-4.1c0.5-1.3,2-1.9,3.2-1.4c1.3,0.5,1.9,2,1.4,3.2l-1.6,4.1l4.1,1.6C77.1,50.5,77.7,52,77.3,53.3
	C77.3,53.3,77.3,53.3,77.3,53.3z"/>
</svg>
