<?xml version="1.0" encoding="utf-8"?>
<!-- Generator: Adobe Illustrator 24.0.3, SVG Export Plug-In . SVG Version: 6.00 Build 0)  -->
<svg version="1.1" id="Layer_1" xmlns="http://www.w3.org/2000/svg" xmlns:xlink="http://www.w3.org/1999/xlink" x="0px" y="0px"
	 viewBox="0 0 95 90.3" style="enable-background:new 0 0 95 90.3;" xml:space="preserve">
<style type="text/css">
	.st0{fill:none;}
</style>
<polygon class="st0" points="90.2,35.9 78.5,35.9 74.6,46.7 86,46.7 "/>
<polygon class="st0" points="66.8,35.9 55.2,35.9 51.3,46.7 62.7,46.7 "/>
<polygon class="st0" points="31.6,24.8 42.1,22.9 35.3,11.6 24.9,13.4 "/>
<polygon class="st0" points="43.5,35.9 32.8,35.9 28.9,46.7 39.4,46.7 "/>
<polygon class="st0" points="21,35.9 9.5,35.9 5.6,46.7 16.9,46.7 "/>
<polygon class="st0" points="58.2,7.6 47.1,9.5 53.7,20.9 65.1,18.9 "/>
<path class="st0" d="M8.6,28.8l11.4-2l-6.8-11.3l-1,0.2c-0.6,0.1-1.3,0.3-1.9,0.5c-2.7,1.1-4.7,3.3-5.6,5.9L8.6,28.8z"/>
<path class="st0" d="M76.6,16.9l11.4-2L81.8,4.5c-0.9-0.3-1.9-0.4-2.8-0.4c-0.6,0-1.1,0-1.7,0.1l-7.2,1.3L76.6,16.9z"/>
<path class="st0" d="M5.2,50.5v25.4c0,5.4,4.7,9.9,10.1,9.9h66c5.4,0,10-4.5,10-9.9V50.5H5.2z M59.4,77.6H11.9
	c-1.1,0-2.1-1.1-2.1-2.3c0-1.1,0.9-2.3,2.1-2.3h47.4c1.1,0,2.1,1.1,2.1,2.3C61.5,76.5,60.5,77.6,59.4,77.6z M59.4,67.6H11.9
	c-1.1,0-2.1-1.1-2.1-2.3c0-1.1,0.9-2.3,2.1-2.3h47.4c1.1,0,2.1,1.1,2.1,2.3C61.5,66.5,60.5,67.6,59.4,67.6z"/>
<path d="M18.2,31.3l75.5-13.2l-1.2-6.7c-0.6-3.6-2.7-6.8-5.7-8.9s-6.7-3-10.4-2.3L11.5,11.5c-0.9,0.2-1.8,0.4-2.7,0.8
	c-6.1,2.4-9.7,8.8-8.6,15.3l1.3,6.7h0.1v41.6c0,7.7,6.1,14.4,13.7,14.4h66C89,90.3,95,83.5,95,75.9V31.3H18.2z M9.5,35.9H21
	l-4.1,10.9H5.6L9.5,35.9z M32.8,35.9h10.7l-4.1,10.9H28.9L32.8,35.9z M55.2,35.9h11.6l-4.1,10.9H51.3L55.2,35.9z M78.5,35.9h11.6
	l-4.2,10.9H74.6L78.5,35.9z M42.1,22.9l-10.6,1.9l-6.6-11.4l10.3-1.8L42.1,22.9z M47.1,9.5l11.2-2l6.8,11.4l-11.4,2L47.1,9.5z
	 M77.3,4.2c0.6-0.1,1.1-0.1,1.7-0.1c1,0,1.9,0.1,2.8,0.4L88,14.9l-11.4,2L70,5.5L77.3,4.2z M10.3,16.1c0.6-0.2,1.2-0.4,1.9-0.5
	l1-0.2L20,26.7l-11.4,2L4.7,22C5.6,19.4,7.6,17.2,10.3,16.1z M81.3,85.7h-66c-5.4,0-10.1-4.5-10.1-9.9V50.5h86.2v25.4
	C91.4,81.2,86.7,85.7,81.3,85.7z"/>
<path d="M59.4,63.1H11.9c-1.1,0-2.1,1.1-2.1,2.3c0,1.1,0.9,2.3,2.1,2.3h47.4c1.1,0,2.1-1.1,2.1-2.3C61.5,64.2,60.5,63.1,59.4,63.1z"
	/>
<path d="M59.4,73H11.9c-1.1,0-2.1,1.1-2.1,2.3c0,1.1,0.9,2.3,2.1,2.3h47.4c1.1,0,2.1-1.1,2.1-2.3C61.5,74.2,60.5,73,59.4,73z"/>
</svg>
