<?xml version="1.0" encoding="utf-8"?>
<!-- Generator: Adobe Illustrator 24.0.3, SVG Export Plug-In . SVG Version: 6.00 Build 0)  -->
<svg version="1.1" id="Layer_1" xmlns="http://www.w3.org/2000/svg" xmlns:xlink="http://www.w3.org/1999/xlink" x="0px" y="0px"
	 viewBox="0 0 52 64" style="enable-background:new 0 0 52 64;" xml:space="preserve">
<title>12-Storyborad</title>
<g>
	<path d="M16,64c-0.3,0-0.5-0.1-0.7-0.3l-15-15c-0.4-0.4-0.4-1,0-1.4C0.5,47.1,0.7,47,1,47h15c0.6,0,1,0.4,1,1v15
		c0,0.4-0.2,0.8-0.6,0.9C16.3,64,16.1,64,16,64z M3.4,49L15,60.6V49H3.4z"/>
	<path d="M51,64H16c-0.3,0-0.5-0.1-0.7-0.3l-15-15C0.1,48.5,0,48.3,0,48V1c0-0.6,0.4-1,1-1h50c0.6,0,1,0.4,1,1v62
		C52,63.6,51.6,64,51,64z M16.4,62H50V2H2v45.6L16.4,62z"/>
	<path d="M17,17H7c-0.6,0-1-0.4-1-1V6c0-0.6,0.4-1,1-1h10c0.6,0,1,0.4,1,1v10C18,16.6,17.6,17,17,17z M8,15h8V7H8V15z"/>
	<path d="M16.3,16.7L12,12.4l-4.3,4.3l-1.4-1.4l5-5c0.4-0.4,1-0.4,1.4,0l5,5L16.3,16.7z"/>
	<path d="M31,17H21c-0.6,0-1-0.4-1-1V6c0-0.6,0.4-1,1-1h10c0.6,0,1,0.4,1,1v10C32,16.6,31.6,17,31,17z M22,15h8V7h-8V15z"/>
	<path d="M30.3,16.7L26,12.4l-4.3,4.3l-1.4-1.4l5-5c0.4-0.4,1-0.4,1.4,0l5,5L30.3,16.7z"/>
	<path d="M45,17H35c-0.6,0-1-0.4-1-1V6c0-0.6,0.4-1,1-1h10c0.6,0,1,0.4,1,1v10C46,16.6,45.6,17,45,17z M36,15h8V7h-8V15z"/>
	<path d="M44.3,16.7L40,12.4l-4.3,4.3l-1.4-1.4l5-5c0.4-0.4,1-0.4,1.4,0l5,5L44.3,16.7z"/>
	<path d="M17,39H7c-0.6,0-1-0.4-1-1V28c0-0.6,0.4-1,1-1h10c0.6,0,1,0.4,1,1v10C18,38.6,17.6,39,17,39z M8,37h8v-8H8V37z"/>
	<path d="M16.3,38.7L12,34.4l-4.3,4.3l-1.4-1.4l5-5c0.4-0.4,1-0.4,1.4,0l5,5L16.3,38.7z"/>
	<path d="M31,39H21c-0.6,0-1-0.4-1-1V28c0-0.6,0.4-1,1-1h10c0.6,0,1,0.4,1,1v10C32,38.6,31.6,39,31,39z M22,37h8v-8h-8V37z"/>
	<path d="M30.3,38.7L26,34.4l-4.3,4.3l-1.4-1.4l5-5c0.4-0.4,1-0.4,1.4,0l5,5L30.3,38.7z"/>
	<path d="M45,39H35c-0.6,0-1-0.4-1-1V28c0-0.6,0.4-1,1-1h10c0.6,0,1,0.4,1,1v10C46,38.6,45.6,39,45,39z M36,37h8v-8h-8V37z"/>
	<path d="M44.3,38.7L40,34.4l-4.3,4.3l-1.4-1.4l5-5c0.4-0.4,1-0.4,1.4,0l5,5L44.3,38.7z"/>
	<rect x="6" y="19" width="11" height="2"/>
	<rect x="6" y="23" width="7" height="2"/>
	<rect x="15" y="23" width="2" height="2"/>
	<rect x="20" y="19" width="11" height="2"/>
	<rect x="20" y="23" width="7" height="2"/>
	<rect x="29" y="23" width="2" height="2"/>
	<rect x="34" y="19" width="11" height="2"/>
	<rect x="34" y="23" width="7" height="2"/>
	<rect x="43" y="23" width="2" height="2"/>
	<rect x="34" y="41" width="11" height="2"/>
	<rect x="34" y="45" width="7" height="2"/>
	<rect x="43" y="45" width="2" height="2"/>
	<rect x="20" y="41" width="11" height="2"/>
	<rect x="6" y="41" width="11" height="2"/>
	<rect x="20" y="45" width="7" height="2"/>
	<rect x="29" y="45" width="2" height="2"/>
	<path d="M25,60c-2.8,0-5-2.2-5-5s2.2-5,5-5s5,2.2,5,5C30,57.8,27.8,60,25,60z M25,52c-1.7,0-3,1.3-3,3s1.3,3,3,3c1.7,0,3-1.3,3-3
		l0,0C28,53.3,26.7,52,25,52z"/>
	<rect x="32" y="58" width="15" height="2"/>
	<rect x="32" y="54" width="15" height="2"/>
	<rect x="45" y="50" width="2" height="2"/>
	<rect x="41" y="50" width="2" height="2"/>
</g>
</svg>
