<svg xmlns="http://www.w3.org/2000/svg" viewBox="0 0 589.69 78.12"><defs><style>.cls-1{fill:#fff;}</style></defs><title>WhiteHor</title><g id="Layer_2" data-name="Layer 2"><g id="Font_1" data-name="Font 1"><path class="cls-1" d="M182.61,1.68v62.2H205.7V76.44H168V1.68Z"/><path class="cls-1" d="M289.65,39.11c0,22.76-16.36,39-39.9,39s-39.9-16.25-39.9-39S226.21,0,249.75,0,289.65,16.36,289.65,39.11Zm-15,0c0-15.13-10.31-25.89-24.88-25.89S224.87,24,224.87,39.11s10.31,25.78,24.88,25.78S274.63,54.24,274.63,39.11Z"/><path class="cls-1" d="M333,76.44H322L296,1.68h15.47l16.7,50.88L346.47,1h8.07L371.8,52.56,389.74,1.68H405.2L377.52,76.44h-11L350.17,29Z"/><path class="cls-1" d="M432.44,1.68c4.15,0,12.22,0,18.27,4.71,4.37,3.36,7,9.19,7,15.46,0,9.64-6.39,13.57-8.41,14.69a17.54,17.54,0,0,1,9.75,4.7c4.49,4.26,5.38,10.09,5.38,14A20,20,0,0,1,458,70.38c-5.61,4.93-12.45,6.06-18.95,6.06H414V1.68Zm-3.92,31.05h4.15c2.24,0,11.32-.23,11.32-9.75,0-6.84-5.27-9.42-11.21-9.42h-4.26Zm0,31.83h6.28c2.69,0,6.72-.12,10-2a9.64,9.64,0,0,0,4.6-8.63,9,9,0,0,0-5.5-8.52c-3.13-1.46-6.83-1.46-10-1.46h-5.38Z"/><path class="cls-1" d="M522.11,60.75H492l-6.62,15.69h-15.8L501.71,1.68h11.43l31.27,74.76H528.72Zm-4.26-11.88L507.2,22l-10.65,26.9Z"/><path class="cls-1" d="M572.88,14.23V76.44H558.31V14.23H541.5V1.68h48.19V14.23Z"/><path class="cls-1" d="M148.08,76.58H0V1.73H148.08ZM5.67,70.9H142.4V7.41H5.67Z"/><polygon class="cls-1" points="48.26 64.37 12.8 64.37 12.8 13.94 31.98 13.94 48.26 64.37"/><path class="cls-1" d="M52.15,67.2H10V11.11H34.05ZM15.64,61.53H44.36L29.92,16.78H15.64Z"/><polygon class="cls-1" points="145.24 64.37 145.24 13.94 153.53 20.79 153.53 57.52 145.24 64.37"/><path class="cls-1" d="M142.4,70.39V7.92l14,11.54V58.85ZM148.08,20V58.34l2.61-2.16v-34Z"/></g></g></svg>